<svg width="135" height="32" fill="none" xmlns="http://www.w3.org/2000/svg"><path d="M57.097 21l-.832-2.72h-4.16L51.273 21h-2.608l4.032-11.472h2.96L59.705 21h-2.608zm-2.24-7.408c-.053-.181-.122-.41-.208-.688-.085-.277-.17-.56-.256-.848a18.46 18.46 0 01-.208-.752c-.053.213-.128.48-.224.8-.085.31-.17.608-.256.896a8.192 8.192 0 01-.176.592l-.816 2.656h2.976l-.832-2.656zM70.224 21h-2.752l-4.144-5.792V21h-2.416V9.576h2.416v5.536l4.096-5.536H70l-4.16 5.488L70.224 21zm5.734-9.568c-.459 0-.87.09-1.232.272a2.51 2.51 0 00-.896.784c-.246.33-.432.736-.56 1.216a6.82 6.82 0 00-.176 1.616c0 .81.096 1.504.288 2.08.202.565.517.997.944 1.296.426.299.97.448 1.632.448.469 0 .933-.053 1.392-.16.469-.107.976-.256 1.52-.448v2.032a8.137 8.137 0 01-1.488.448 8.62 8.62 0 01-1.648.144c-1.174 0-2.144-.24-2.912-.72-.758-.49-1.318-1.173-1.68-2.048-.363-.885-.544-1.915-.544-3.088 0-.864.117-1.653.352-2.368a5.387 5.387 0 011.024-1.872 4.699 4.699 0 011.68-1.216c.672-.288 1.44-.432 2.304-.432.565 0 1.13.075 1.696.224.576.139 1.125.33 1.648.576l-.784 1.968a12.222 12.222 0 00-1.296-.528 3.81 3.81 0 00-1.264-.224zm5.1-1.856h2.175v5.52c0 .267-.005.565-.016.896l-.032.976c-.01.31-.021.581-.032.816-.01.224-.021.379-.032.464h.048l5.28-8.672h2.896V21h-2.16v-5.488c0-.288.005-.603.016-.944.01-.352.022-.688.032-1.008.021-.32.037-.597.048-.832.021-.245.037-.405.048-.48h-.064L83.97 21h-2.912V9.576zM103.3 21h-2.752l-4.144-5.792V21H93.99V9.576h2.416v5.536l4.096-5.536h2.576l-4.16 5.488L103.301 21zm11.254-5.728c0 .885-.112 1.69-.336 2.416a5.026 5.026 0 01-.992 1.856c-.438.523-1.003.923-1.696 1.2-.683.277-1.488.416-2.416.416-.928 0-1.739-.139-2.432-.416a4.574 4.574 0 01-1.696-1.2 5.323 5.323 0 01-.992-1.872c-.214-.725-.32-1.53-.32-2.416 0-1.184.192-2.213.576-3.088a4.432 4.432 0 011.792-2.032c.81-.49 1.84-.736 3.088-.736 1.237 0 2.256.245 3.056.736.8.48 1.392 1.163 1.776 2.048.394.875.592 1.904.592 3.088zm-8.336 0c0 .8.101 1.488.304 2.064.202.576.517 1.019.944 1.328.426.31.976.464 1.648.464.693 0 1.248-.155 1.664-.464.426-.31.736-.752.928-1.328.202-.576.304-1.264.304-2.064 0-1.205-.224-2.15-.672-2.832-.448-.683-1.184-1.024-2.208-1.024-.683 0-1.238.155-1.664.464-.427.31-.742.752-.944 1.328-.203.576-.304 1.264-.304 2.064zM121.513 21l-2.752-8.96h-.064a447.44 447.44 0 01.112 2.336c.021.48.032.917.032 1.312V21h-2.16V9.576h3.296l2.704 8.736h.048l2.864-8.736h3.296V21h-2.256v-5.408c0-.363.005-.779.016-1.248.021-.47.037-.912.048-1.328l.048-.96h-.064L123.737 21h-2.224z" fill="#000"/><path d="M22 2.688C11.891 2.688 3.696 8.648 3.696 16c0 7.352 8.195 13.312 18.304 13.312 10.11 0 18.304-5.96 18.304-13.312C40.304 8.648 32.11 2.688 22 2.688zm.573 24.212a1.046 1.046 0 01-.571.165c-.147 0-.366-.029-.578-.168-2.576-1.685-4.473-3.84-5.551-6.225a34.34 34.34 0 0112.27-.032c-1.076 2.4-2.98 4.567-5.57 6.26zm-7.39-8.214c-.22-.878-.34-1.776-.34-2.686 0-.91.12-1.808.34-2.686 2.265.42 4.587.63 6.911.63 2.262 0 4.524-.2 6.733-.598.214.868.331 1.756.331 2.654 0 .898-.117 1.785-.331 2.654a38.204 38.204 0 00-13.644.032zM21.428 5.1c.208-.136.425-.165.57-.165.147 0 .366.03.578.168 2.588 1.692 4.49 3.859 5.567 6.257-4.027.726-8.25.716-12.271-.031 1.08-2.387 2.977-4.543 5.556-6.23zm10.108 7.648a33.461 33.461 0 004.491-1.516c.935 1.449 1.461 3.064 1.461 4.768 0 1.704-.526 3.32-1.46 4.768a33.396 33.396 0 00-4.491-1.516c.283-1.06.437-2.148.437-3.252 0-1.104-.154-2.192-.438-3.252zm3.068-3.283a29.88 29.88 0 01-3.769 1.291c-.9-2.016-2.315-3.882-4.16-5.495 3.228.745 5.999 2.241 7.929 4.204zM17.327 5.261c-1.831 1.6-3.238 3.45-4.139 5.448a29.784 29.784 0 01-3.737-1.3c1.927-1.935 4.677-3.41 7.875-4.148zm-9.316 5.91a33.277 33.277 0 004.465 1.532 12.574 12.574 0 00-.45 3.297c0 1.12.158 2.222.45 3.297A33.32 33.32 0 008.01 20.83c-.96-1.465-1.499-3.102-1.499-4.83 0-1.728.539-3.365 1.499-4.83zM9.45 22.59a29.79 29.79 0 013.737-1.3c.9 1.998 2.308 3.848 4.138 5.449-3.198-.738-5.948-2.213-7.875-4.15zm17.223 4.149c1.846-1.614 3.261-3.48 4.16-5.495a29.97 29.97 0 013.77 1.29c-1.93 1.963-4.701 3.46-7.93 4.205z" fill="#2196F3"/></svg>