<svg width="28" height="28" fill="none" xmlns="http://www.w3.org/2000/svg"><path d="M12.152 18.375c.5.52 1.131.766 1.892.735.76-.03 1.311-.317 1.652-.86l6.728-10.5-10.092 7c-.52.375-.806.943-.855 1.703-.05.76.175 1.4.675 1.922zM5.724 24c-.44 0-.845-.1-1.215-.297a2.198 2.198 0 01-.887-.89 14.33 14.33 0 01-1.202-3.048C2.14 18.712 2 17.625 2 16.5c0-1.73.316-3.354.947-4.875.63-1.52 1.487-2.844 2.567-3.969A12.11 12.11 0 019.33 4.985 11.328 11.328 0 0114.014 4c1.642 0 3.184.323 4.625.969a12.124 12.124 0 013.785 2.641 12.827 12.827 0 012.583 3.906c.64 1.49.97 3.089.99 4.796a12.983 12.983 0 01-.375 3.36 12.576 12.576 0 01-1.246 3.14 2.19 2.19 0 01-.887.892c-.37.198-.776.297-1.215.296H5.724z" fill="#1288E8"/></svg>