<svg width="28" height="28" fill="none" xmlns="http://www.w3.org/2000/svg"><path d="M14 2c4.226 0 6.622 2.885 6.97 6.369h.106c2.722 0 4.924 2.268 4.924 5.066 0 .142-.006.284-.017.424A8.624 8.624 0 0010.659 18.5H6.923C4.203 18.5 2 16.232 2 13.434 2 10.637 4.205 8.37 6.923 8.37h.106C7.38 4.862 9.774 2 14 2zm5.25 24a6.75 6.75 0 110-13.5 6.75 6.75 0 010 13.5zm2.403-7.347L20 20.306V16.25a.75.75 0 10-1.5 0v4.056l-1.653-1.653a.844.844 0 00-1.194 1.194l3 3c.33.33.864.33 1.194 0l3-3a.844.844 0 00-1.194-1.194z" fill="#1288E8"/></svg>