<svg width="28" height="28" fill="none" xmlns="http://www.w3.org/2000/svg"><g clip-path="url(#clip0_45_381)" fill="#1288E8"><path fill-rule="evenodd" clip-rule="evenodd" d="M7.25 5.294c1.203.876 2.139 2.071 2.938 3.216l.465.677.439.646a1.582 1.582 0 01-.27 2.089l-2.051 1.524a.505.505 0 00-.15.647c.465.845 1.292 2.102 2.239 3.049.947.946 2.264 1.827 3.168 2.345a.508.508 0 00.677-.17l1.336-2.033a1.58 1.58 0 012.162-.35l.698.483c1.303.905 2.703 1.932 3.774 3.302a1.546 1.546 0 01.199 1.56c-.88 2.054-3.109 3.803-5.426 3.718l-.315-.018-.245-.02-.272-.032-.295-.04-.321-.053c-.056-.01-.113-.02-.168-.032l-.354-.075a13.029 13.029 0 01-.185-.042l-.385-.1-.405-.115-.423-.136c-1.941-.659-4.406-1.952-6.935-4.48-2.527-2.527-3.82-4.99-4.48-6.932l-.136-.423-.116-.405-.099-.384-.082-.364a12.335 12.335 0 01-.066-.343l-.053-.32-.042-.296-.03-.272-.021-.245-.017-.315c-.085-2.31 1.683-4.552 3.728-5.428a1.547 1.547 0 011.52.167z"/><path d="M20 2a6 6 0 110 12 6 6 0 010-12zm0 2.4a.6.6 0 00-.6.6v3a.6.6 0 00.176.424l1.8 1.8a.6.6 0 00.848-.848L20.6 7.752V5a.6.6 0 00-.6-.6z"/></g><defs><clipPath id="clip0_45_381"><path fill="#fff" d="M0 0h28v28H0z"/></clipPath></defs></svg>