<svg width="28" height="28" fill="none" xmlns="http://www.w3.org/2000/svg"><path d="M26 22.25c0 .199-.09.39-.251.53a.923.923 0 01-.606.22h-4.788l-3.177 2.781a.874.874 0 01-.278.162.964.964 0 01-.329.057H8a.923.923 0 01-.606-.22.706.706 0 01-.251-.53V23H2.857a.923.923 0 01-.606-.22.706.706 0 01-.251-.53c0-.199.09-.39.251-.53a.92.92 0 01.606-.22h4.286V20H2.857a.923.923 0 01-.606-.22.706.706 0 01-.251-.53c0-.199.09-.39.251-.53a.92.92 0 01.606-.22h4.286v-2.25c0-.199.09-.39.25-.53A.927.927 0 018 15.5h8.571c.113 0 .225.02.329.057a.874.874 0 01.278.162l3.177 2.781h4.788c.227 0 .445.079.606.22.16.14.251.331.251.53v3zM2 5.75c0-.199.09-.39.251-.53A.92.92 0 012.857 5h4.788l3.177-2.781a.875.875 0 01.278-.162.965.965 0 01.33-.057H20c.227 0 .445.079.606.22.16.14.251.331.251.53v.75h4.286c.227 0 .445.079.606.22.16.14.251.331.251.53v6c0 .199-.09.39-.251.53a.923.923 0 01-.606.22h-4.286v.75c0 .199-.09.39-.25.53a.923.923 0 01-.607.22h-8.571a.964.964 0 01-.329-.057.874.874 0 01-.278-.162L7.645 9.5H2.857a.923.923 0 01-.606-.22A.706.706 0 012 8.75v-3zM20.857 9.5h3.429V5h-3.429v4.5z" fill="#1288E8"/><path d="M14 19.75a5.75 5.75 0 100-11.5 5.75 5.75 0 000 11.5z" fill="#2F97EB" stroke="#fff" stroke-width="1.5"/><path d="M16.248 11.673l-2.845 2.855-1.365-1.365-1.06 1.065 2.425 2.425 3.905-3.915-1.06-1.065z" fill="#fff"/></svg>