<svg width="16" height="16" viewBox="0 0 16 16" fill="none" xmlns="http://www.w3.org/2000/svg">
<path d="M8.00004 2.3949C3.74363 2.3949 0.293091 4.90438 0.293091 7.99995C0.293091 11.0955 3.74363 13.605 8.00004 13.605C12.2564 13.605 15.707 11.0955 15.707 7.99995C15.707 4.90438 12.2564 2.3949 8.00004 2.3949ZM8.24132 12.5895C8.15339 12.6468 8.06209 12.6589 8.00083 12.6589C7.93898 12.6589 7.84669 12.6467 7.75737 12.5883C6.67266 11.8786 5.8743 10.9713 5.41999 9.96689C7.11295 9.65229 8.89128 9.64798 10.5868 9.95381C10.1333 10.964 9.33156 11.8766 8.24132 12.5895ZM5.1295 9.13102C5.03682 8.76109 4.98642 8.38296 4.98642 7.99995C4.98642 7.61694 5.03682 7.23881 5.1293 6.86888C6.08318 7.0458 7.06117 7.13462 8.03956 7.13462C8.99206 7.13462 9.94436 7.05025 10.8743 6.88253C10.9646 7.24815 11.0138 7.62168 11.0138 7.99995C11.0138 8.37822 10.9646 8.75175 10.8743 9.11737C8.9891 8.77733 7.01197 8.78164 5.1295 9.13102ZM7.75895 3.41042C7.84669 3.35307 7.93818 3.341 7.99925 3.341C8.0611 3.341 8.15339 3.35336 8.24271 3.41157C9.33215 4.12427 10.1331 5.03646 10.5864 6.04609C8.89088 6.35178 7.11255 6.34761 5.41959 6.03301C5.87411 5.02812 6.67326 4.12025 7.75895 3.41042ZM12.0152 6.63059C12.6647 6.46086 13.2975 6.24787 13.9061 5.99233C14.3 6.60242 14.5213 7.28265 14.5213 7.99995C14.5213 8.71725 14.3 9.39748 13.9063 10.0076C13.2977 9.75189 12.6649 9.53904 12.0154 9.36931C12.1347 8.92291 12.1995 8.46488 12.1995 7.99995C12.1993 7.53502 12.1347 7.07713 12.0152 6.63059ZM13.3068 5.24844C12.7949 5.46316 12.2644 5.64497 11.7201 5.79199C11.3413 4.94304 10.7451 4.15747 9.96808 3.47825C11.3275 3.79199 12.4942 4.42191 13.3068 5.24844ZM6.0322 3.4784C5.26131 4.1523 4.66886 4.93097 4.28983 5.7723C3.74995 5.62326 3.22351 5.44103 2.71623 5.22516C3.52764 4.41013 4.68546 3.78912 6.0322 3.4784ZM2.10976 5.96632C2.71465 6.22401 3.34366 6.43945 3.98966 6.61176C3.86694 7.06419 3.80074 7.52855 3.80074 7.99995C3.80074 8.47135 3.86674 8.93571 3.98966 9.38813C3.34366 9.5606 2.71465 9.77589 2.10976 10.0336C1.70564 9.41688 1.47877 8.72746 1.47877 7.99995C1.47877 7.27244 1.70564 6.58302 2.10976 5.96632ZM2.71623 10.7746C3.22331 10.5589 3.74976 10.3765 4.28983 10.2275C4.66886 11.0688 5.26131 11.8476 6.0322 12.5215C4.68546 12.2108 3.52764 11.5898 2.71623 10.7746ZM9.96808 12.5215C10.7451 11.8421 11.3411 11.0567 11.7199 10.2078C12.2642 10.3548 12.7947 10.5367 13.3066 10.7513C12.4942 11.5778 11.3275 12.2078 9.96808 12.5215Z" fill="#2196F3"/>
</svg>
