<svg width="16" height="16" fill="none" xmlns="http://www.w3.org/2000/svg"><path d="M8 2.395C3.744 2.395.293 4.905.293 8c0 3.095 3.45 5.605 7.707 5.605 4.256 0 7.707-2.51 7.707-5.605 0-3.096-3.45-5.605-7.707-5.605zm.241 10.194a.44.44 0 01-.24.07.445.445 0 01-.244-.07c-1.084-.71-1.883-1.618-2.337-2.622a14.459 14.459 0 015.167-.013c-.454 1.01-1.255 1.923-2.346 2.635zM5.13 9.131A4.647 4.647 0 014.986 8c0-.383.05-.761.143-1.131a15.99 15.99 0 005.745.014c.09.365.14.739.14 1.117s-.05.752-.14 1.117a16.086 16.086 0 00-5.745.014zm2.629-5.72a.446.446 0 01.484.001c1.09.712 1.89 1.624 2.343 2.634a14.462 14.462 0 01-5.166-.013C5.874 5.028 6.673 4.12 7.759 3.41zm4.256 3.22c.65-.17 1.282-.383 1.891-.639.394.61.615 1.29.615 2.008 0 .717-.221 1.397-.615 2.008a14.06 14.06 0 00-1.89-.639c.119-.446.184-.904.184-1.369 0-.465-.065-.923-.185-1.37zm1.292-1.383c-.512.215-1.043.397-1.587.544-.379-.849-.975-1.635-1.752-2.314 1.36.314 2.526.944 3.339 1.77zm-7.275-1.77c-.77.674-1.363 1.453-1.742 2.294a12.545 12.545 0 01-1.574-.547c.812-.815 1.97-1.436 3.316-1.747zM2.11 5.966c.605.258 1.234.473 1.88.646A5.293 5.293 0 003.8 8c0 .471.067.936.19 1.388-.646.173-1.275.388-1.88.646-.404-.617-.631-1.307-.631-2.034 0-.728.227-1.417.63-2.034zm.606 4.809a12.544 12.544 0 011.574-.548c.379.842.971 1.62 1.742 2.294-1.347-.31-2.504-.931-3.316-1.746zm7.252 1.746c.777-.679 1.373-1.464 1.752-2.313a12.73 12.73 0 011.587.543c-.813.827-1.98 1.457-3.339 1.77z" fill="#2196F3"/></svg>